<svg xmlns="http://www.w3.org/2000/svg" viewBox="0 0 1252 727"><path fill="#fff" fill-rule="evenodd" d="M265.00,-0.00 254.00,1.78 253.00,3.38 250.00,3.76 249.71,5.00 248.27,6.00 248.27,7.00 245.00,7.97 244.97,9.00 243.00,9.91 242.10,12.00 241.00,12.10 240.36,13.00 240.00,14.43 238.57,15.00 237.14,21.00 236.00,21.19 235.26,25.00 233.65,26.00 233.35,29.00 231.74,30.00 231.00,32.80 229.85,33.00 228.17,41.00 226.58,42.00 226.28,45.00 224.65,46.00 224.00,49.63 223.00,49.63 222.00,52.83 220.87,53.00 220.03,58.00 219.00,58.04 218.54,59.00 217.29,65.00 215.67,66.00 215.37,69.00 213.76,70.00 213.00,72.86 211.89,73.00 211.06,78.00 210.00,78.07 209.20,82.00 207.60,83.00 206.38,89.00 204.78,90.00 204.44,93.00 204.00,93.89 202.91,94.00 202.08,98.00 201.00,98.09 200.55,99.00 200.22,102.00 198.61,103.00 197.39,109.00 195.79,110.00 195.45,113.00 195.00,113.91 193.92,114.00 193.10,118.00 192.00,118.12 191.56,119.00 191.23,122.00 190.00,122.33 189.00,125.53 187.70,126.00 186.46,133.00 186.00,133.94 184.95,134.00 184.13,138.00 183.00,138.16 182.56,139.00 182.25,142.00 181.00,142.35 180.00,145.56 178.71,146.00 178.00,149.76 176.82,150.00 175.14,158.00 174.00,158.18 173.25,162.00 172.00,162.38 171.00,165.59 169.73,166.00 169.00,169.79 167.84,170.00 167.00,175.00 166.00,175.00 165.52,176.00 164.27,182.00 162.65,183.00 162.36,186.00 160.74,187.00 160.00,189.81 158.86,190.00 158.03,195.00 157.00,195.03 156.53,196.00 155.29,202.00 153.66,203.00 153.37,206.00 151.75,207.00 151.00,209.84 149.88,210.00 149.04,215.00 148.00,215.05 147.19,218.00 145.60,219.00 144.38,226.00 142.77,227.00 142.00,229.88 140.90,230.00 140.07,235.00 139.00,235.09 138.21,238.00 136.61,239.00 136.31,242.00 134.68,243.00 133.45,249.00 133.00,249.90 131.92,250.00 131.08,255.00 130.00,255.10 129.56,256.00 129.22,259.00 128.00,259.31 127.00,262.51 125.69,263.00 124.45,269.00 124.00,269.92 122.94,270.00 122.11,275.00 121.00,275.15 120.24,279.00 119.00,279.34 118.00,282.54 116.71,283.00 116.00,286.75 114.82,287.00 113.13,295.00 112.00,295.17 111.25,299.00 110.00,299.36 109.00,302.58 107.72,303.00 107.41,306.00 105.83,307.00 105.47,310.00 103.52,312.00 102.26,319.00 101.00,319.39 100.00,322.60 98.74,323.00 98.42,326.00 98.00,326.80 96.85,327.00 96.02,331.00 95.00,331.02 94.54,332.00 93.54,338.00 93.11,348.00 94.69,361.00 96.00,361.43 96.81,364.00 98.00,364.21 98.55,366.00 100.00,366.54 101.00,368.64 102.35,369.00 103.41,372.00 105.51,373.00 103.81,374.00 102.62,377.00 101.00,377.53 100.48,379.00 99.00,379.44 98.39,381.00 97.00,381.37 96.00,383.28 95.00,383.28 93.15,385.00 93.00,386.15 91.11,387.00 91.00,388.11 89.08,389.00 89.08,390.00 88.00,390.08 87.15,392.00 86.00,392.15 85.23,394.00 84.00,394.23 82.00,397.42 81.00,397.42 80.00,399.52 78.56,400.00 78.00,401.69 76.71,402.00 76.00,404.00 75.00,404.00 74.28,406.00 72.47,407.00 71.02,412.00 70.00,412.02 69.00,414.49 67.60,415.00 67.00,417.00 66.00,417.00 65.00,419.61 63.69,420.00 62.11,426.00 61.00,426.13 60.02,430.00 59.00,430.02 58.51,431.00 58.09,434.00 57.00,434.11 56.21,437.00 54.64,438.00 54.00,441.81 52.87,442.00 51.33,452.00 51.00,452.83 49.91,453.00 49.00,459.80 47.92,460.00 47.08,470.00 45.87,471.00 45.50,478.00 45.90,507.00 47.13,508.00 47.86,518.00 49.19,519.00 50.00,525.70 51.13,526.00 51.55,532.00 48.00,532.90 47.89,534.00 45.05,535.00 45.00,536.04 41.20,537.00 41.00,538.17 35.00,539.63 34.47,541.00 32.00,541.76 31.72,543.00 30.00,543.50 29.00,545.33 27.14,546.00 27.00,547.14 24.00,547.97 23.97,549.00 21.94,550.00 20.24,554.00 19.00,554.26 18.00,556.47 16.56,557.00 16.00,558.83 14.84,559.00 14.00,561.38 12.56,562.00 12.08,565.00 11.00,565.09 10.49,566.00 9.11,572.00 8.00,572.15 7.57,573.00 7.33,576.00 5.82,577.00 5.00,581.98 3.99,582.00 3.21,591.00 3.00,591.80 2.00,591.80 1.75,593.00 1.47,602.00 1.77,620.00 2.00,622.20 3.00,622.20 3.19,623.00 3.74,631.00 4.00,631.89 5.04,632.00 5.65,638.00 6.00,638.98 7.01,639.00 7.82,645.00 9.31,646.00 10.63,654.00 12.18,655.00 12.99,660.00 14.00,660.01 15.00,663.14 16.00,663.14 16.97,667.00 18.00,667.04 19.00,669.84 20.14,670.00 21.83,676.00 23.00,676.19 24.00,678.60 25.33,679.00 25.89,682.00 27.00,682.11 28.00,684.46 31.27,686.00 32.78,691.00 34.00,691.23 35.00,693.31 38.00,694.37 38.64,696.00 40.68,697.00 42.00,700.23 45.00,700.97 45.03,702.00 47.00,702.75 48.00,704.56 51.00,705.40 51.88,706.00 52.00,707.11 54.42,708.00 54.42,709.00 56.97,710.00 57.00,711.03 60.00,711.56 61.00,713.27 63.55,714.00 64.00,715.31 71.00,716.59 71.81,717.00 72.00,718.14 76.39,719.00 77.00,720.31 82.00,720.80 83.00,722.28 89.00,722.96 89.10,724.00 90.00,724.28 98.00,724.84 101.00,726.02 110.00,726.34 1220.00,726.30 1223.14,726.00 1224.00,724.97 1229.00,724.42 1229.84,724.00 1230.00,722.88 1233.00,722.48 1234.00,720.81 1236.00,720.32 1236.36,719.00 1238.54,718.00 1239.00,716.56 1242.00,715.54 1243.00,713.39 1244.35,713.00 1245.50,708.00 1246.00,707.00 1247.00,707.00 1248.00,702.20 1249.10,702.00 1249.37,686.00 1249.00,684.81 1248.00,684.81 1247.70,684.00 1247.25,679.00 1245.77,678.00 1244.36,668.00 1244.00,667.09 1242.94,667.00 1242.06,661.00 1241.00,660.91 1240.63,660.00 1240.14,655.00 1238.69,654.00 1238.22,650.00 1236.75,649.00 1236.29,644.00 1235.00,643.36 1234.54,642.00 1233.39,633.00 1231.61,631.00 1231.06,626.00 1230.00,625.90 1229.63,625.00 1229.13,621.00 1228.00,620.78 1227.66,620.00 1227.17,615.00 1225.70,614.00 1225.22,610.00 1223.73,609.00 1222.30,599.00 1220.82,598.00 1220.33,593.00 1218.84,592.00 1218.00,587.28 1216.84,587.00 1216.33,582.00 1216.00,581.28 1215.00,581.28 1214.54,580.00 1213.24,571.00 1212.00,570.54 1211.49,569.00 1211.56,562.00 1212.00,560.40 1213.17,560.00 1214.80,548.00 1216.25,547.00 1216.68,542.00 1217.00,541.16 1218.08,541.00 1218.79,535.00 1220.21,534.00 1220.79,528.00 1222.17,527.00 1223.94,509.00 1225.00,508.83 1225.23,508.00 1225.94,497.00 1227.10,496.00 1227.15,477.00 1227.00,476.10 1225.98,476.00 1225.25,464.00 1225.00,463.07 1223.97,463.00 1222.24,449.00 1220.74,448.00 1220.20,444.00 1218.66,443.00 1218.42,440.00 1218.00,439.17 1216.87,439.00 1216.08,435.00 1215.00,434.91 1214.54,434.00 1213.03,427.00 1212.00,426.97 1211.00,425.22 1209.81,425.00 1209.36,422.00 1208.00,421.52 1207.04,418.00 1206.00,417.96 1205.42,416.00 1204.00,415.47 1202.94,414.00 1202.31,411.00 1201.00,410.66 1200.00,408.43 1199.00,408.43 1198.00,406.23 1196.78,406.00 1196.03,404.00 1195.00,403.97 1194.23,402.00 1192.33,401.00 1191.38,398.00 1190.00,397.61 1189.40,396.00 1186.00,394.60 1185.00,392.63 1183.32,392.00 1182.22,389.00 1180.02,388.00 1180.00,386.98 1177.00,386.23 1176.00,384.39 1173.00,383.52 1172.00,381.69 1170.00,381.03 1169.97,380.00 1168.00,379.36 1167.58,378.00 1165.20,377.00 1165.00,375.82 1162.00,375.31 1161.63,374.00 1160.00,372.91 1157.00,372.39 1156.00,370.66 1153.00,370.24 1152.70,369.00 1150.00,368.10 1149.89,367.00 1149.00,366.51 1146.00,366.06 1145.93,365.00 1145.00,364.54 1139.00,363.40 1138.15,363.00 1138.00,361.90 1133.00,361.26 1132.00,359.71 1128.00,359.07 1127.89,358.00 1127.00,357.61 1124.00,357.40 1123.07,357.00 1123.00,355.95 1119.00,355.35 1118.00,353.85 1108.00,352.27 1107.00,350.76 1102.00,350.26 1101.00,348.74 1096.87,348.00 1097.00,346.83 1098.00,346.83 1098.47,346.00 1099.52,343.00 1103.00,341.46 1104.00,339.32 1105.30,339.00 1106.00,337.03 1107.03,337.00 1107.67,334.00 1109.47,333.00 1110.63,329.00 1112.33,328.00 1112.69,325.00 1114.32,324.00 1115.00,321.24 1116.16,321.00 1116.73,316.00 1118.19,315.00 1118.86,309.00 1120.23,308.00 1121.30,295.00 1121.57,278.00 1120.16,243.00 1118.89,242.00 1118.23,232.00 1118.00,231.14 1116.95,231.00 1116.10,221.00 1114.78,220.00 1114.07,212.00 1113.00,211.83 1112.25,205.00 1110.90,204.00 1109.03,188.00 1108.00,187.93 1107.67,187.00 1107.00,181.00 1106.00,180.99 1105.00,175.31 1103.86,175.00 1103.16,168.00 1101.74,167.00 1101.00,162.01 1100.00,162.00 1098.33,150.00 1098.00,149.18 1096.90,149.00 1096.11,143.00 1095.00,142.80 1094.67,142.00 1094.21,137.00 1092.74,136.00 1092.30,132.00 1090.83,131.00 1090.36,126.00 1088.58,124.00 1087.41,115.00 1085.62,113.00 1085.10,108.00 1084.00,107.85 1083.63,107.00 1083.06,103.00 1082.00,102.90 1081.62,102.00 1081.03,97.00 1080.00,96.96 1079.61,96.00 1078.40,88.00 1078.00,87.03 1076.98,87.00 1076.00,82.09 1074.94,82.00 1074.37,77.00 1074.00,76.15 1072.90,76.00 1072.33,72.00 1070.82,71.00 1070.28,66.00 1068.76,65.00 1067.14,55.00 1066.00,54.76 1065.06,50.00 1064.00,49.91 1063.40,46.00 1063.00,45.07 1061.95,45.00 1061.35,41.00 1059.86,40.00 1059.30,35.00 1057.79,34.00 1056.26,24.00 1054.76,23.00 1054.10,19.00 1053.00,18.88 1052.00,16.02 1050.98,16.00 1050.39,13.00 1049.00,12.55 1048.53,11.00 1047.00,9.40 1045.58,9.00 1045.00,7.49 1043.40,7.00 1043.00,5.65 1040.00,5.13 1039.85,4.00 1037.00,3.06 1036.92,2.00 1036.00,1.57 1025.00,-0.00 266.00,-0.00Z"/></svg>